<svg width="181" height="31" viewBox="0 0 181 31" fill="none" xmlns="http://www.w3.org/2000/svg">
<path d="M1.88 29.35C1.44 29.35 1.1 29.22 0.86 28.96C0.62 28.72 0.5 28.11 0.5 27.13C0.5 26.23 0.66 25.06 0.98 23.62C1.3 22.16 1.73 20.54 2.27 18.76C2.81 16.98 3.42 15.14 4.1 13.24C4.78 11.32 5.49 9.44 6.23 7.6C6.99 5.74 7.72 4.04 8.42 2.5C8.68 1.94 8.95 1.55 9.23 1.33C9.51 1.11 9.84 0.999999 10.22 0.999999C10.48 0.999999 10.7 1.08 10.88 1.24C11.08 1.38 11.18 1.62 11.18 1.96C11.18 2.08 11.05 2.47 10.79 3.13C10.55 3.79 10.21 4.66 9.77 5.74C9.35 6.82 8.88 8.03 8.36 9.37C7.84 10.71 7.31 12.12 6.77 13.6C6.23 15.08 5.72 16.57 5.24 18.07C4.76 19.55 4.35 20.97 4.01 22.33C3.67 23.69 3.44 24.91 3.32 25.99C3.8 25.41 4.35 24.67 4.97 23.77C5.59 22.87 6.25 21.9 6.95 20.86C7.65 19.82 8.36 18.79 9.08 17.77C9.8 16.75 10.51 15.82 11.21 14.98C11.91 14.14 12.56 13.47 13.16 12.97C13.78 12.45 14.32 12.19 14.78 12.19C15.54 12.19 16.15 12.43 16.61 12.91C17.09 13.37 17.33 14.13 17.33 15.19C17.33 15.79 17.21 16.51 16.97 17.35C16.75 18.19 16.49 19.07 16.19 19.99C15.89 20.91 15.62 21.79 15.38 22.63C15.16 23.47 15.05 24.19 15.05 24.79C15.05 25.61 15.36 26.02 15.98 26.02C16.94 26.02 17.9 25.81 18.86 25.39C19.84 24.97 20.77 24.45 21.65 23.83C22.53 23.19 23.34 22.55 24.08 21.91C24.82 21.25 25.45 20.69 25.97 20.23C26.53 19.73 27 19.48 27.38 19.48C27.86 19.48 28.1 19.73 28.1 20.23C28.1 20.37 28.07 20.53 28.01 20.71C27.95 20.89 27.79 21.12 27.53 21.4C27.21 21.76 26.75 22.23 26.15 22.81C25.57 23.39 24.89 24.01 24.11 24.67C23.35 25.33 22.52 25.95 21.62 26.53C20.74 27.11 19.83 27.59 18.89 27.97C17.97 28.33 17.07 28.51 16.19 28.51C14.99 28.51 14.06 28.17 13.4 27.49C12.76 26.79 12.44 25.83 12.44 24.61C12.44 23.85 12.56 22.93 12.8 21.85C13.04 20.77 13.34 19.63 13.7 18.43C14.08 17.21 14.46 16.02 14.84 14.86C14.2 15.3 13.5 15.96 12.74 16.84C12 17.7 11.22 18.68 10.4 19.78C9.58 20.86 8.76 21.96 7.94 23.08C7.14 24.2 6.36 25.24 5.6 26.2C4.86 27.14 4.17 27.9 3.53 28.48C2.89 29.06 2.34 29.35 1.88 29.35ZM37.9334 15.07C37.9334 15.71 37.7334 16.34 37.3334 16.96C36.9334 17.56 36.4034 18.14 35.7434 18.7C35.0834 19.24 34.3534 19.75 33.5534 20.23C32.7534 20.71 31.9534 21.13 31.1534 21.49C30.3534 21.85 29.6234 22.14 28.9634 22.36C28.8034 23.14 28.7234 23.83 28.7234 24.43C28.7234 24.81 28.8134 25.08 28.9934 25.24C29.1734 25.4 29.4534 25.48 29.8334 25.48C30.6734 25.48 31.5634 25.33 32.5034 25.03C33.4434 24.73 34.4034 24.34 35.3834 23.86C36.3634 23.38 37.3034 22.87 38.2034 22.33C39.1034 21.79 39.9234 21.28 40.6634 20.8C41.4234 20.32 42.0534 19.93 42.5534 19.63C43.0534 19.33 43.3834 19.18 43.5434 19.18C43.7834 19.18 43.9634 19.26 44.0834 19.42C44.2234 19.56 44.2934 19.73 44.2934 19.93C44.2934 20.09 44.0434 20.4 43.5434 20.86C43.0634 21.32 42.4134 21.86 41.5934 22.48C40.7734 23.08 39.8534 23.7 38.8334 24.34C37.8134 24.98 36.7534 25.58 35.6534 26.14C34.5734 26.7 33.5234 27.15 32.5034 27.49C31.5034 27.83 30.6034 28 29.8034 28C28.7634 28 27.9534 27.61 27.3734 26.83C26.7934 26.05 26.5034 24.84 26.5034 23.2C26.5034 22.1 26.6434 20.99 26.9234 19.87C27.2234 18.75 27.6234 17.68 28.1234 16.66C28.6434 15.62 29.2134 14.7 29.8334 13.9C30.4734 13.08 31.1434 12.44 31.8434 11.98C32.5434 11.5 33.2234 11.26 33.8834 11.26C35.1434 11.26 36.1334 11.61 36.8534 12.31C37.5734 13.01 37.9334 13.93 37.9334 15.07ZM29.5934 20.05C30.2134 19.67 30.8534 19.27 31.5134 18.85C32.1734 18.43 32.7834 18 33.3434 17.56C33.9034 17.12 34.3534 16.66 34.6934 16.18C35.0534 15.68 35.2334 15.17 35.2334 14.65C35.2334 13.91 34.8334 13.54 34.0334 13.54C33.5334 13.54 33.0034 13.86 32.4434 14.5C31.9034 15.12 31.3834 15.93 30.8834 16.93C30.3834 17.93 29.9534 18.97 29.5934 20.05ZM47.8135 29.2C46.2735 29.2 45.0635 28.7 44.1835 27.7C43.3235 26.68 42.8935 25.26 42.8935 23.44C42.8935 22.32 43.0435 21.01 43.3435 19.51C43.6635 17.99 44.0635 16.39 44.5435 14.71C45.0435 13.01 45.5835 11.33 46.1635 9.67C46.7435 8.01 47.3035 6.47 47.8435 5.05C48.4035 3.61 48.8935 2.41 49.3135 1.45C49.5535 0.909998 49.8935 0.639998 50.3335 0.639998C50.9335 0.639998 51.2335 1.01 51.2335 1.75C51.2335 1.99 51.1235 2.48 50.9035 3.22C50.6835 3.96 50.3935 4.88 50.0335 5.98C49.6735 7.06 49.2835 8.26 48.8635 9.58C48.4435 10.9 48.0135 12.26 47.5735 13.66C47.1535 15.04 46.7635 16.41 46.4035 17.77C46.0435 19.11 45.7535 20.37 45.5335 21.55C45.3135 22.73 45.2035 23.74 45.2035 24.58C45.2035 25.12 45.3435 25.55 45.6235 25.87C45.9235 26.17 46.3235 26.32 46.8235 26.32C47.7435 26.32 48.6635 26.14 49.5835 25.78C50.5235 25.4 51.4235 24.94 52.2835 24.4C53.1435 23.84 53.9235 23.29 54.6235 22.75C55.3435 22.19 55.9535 21.73 56.4535 21.37C56.9535 20.99 57.3035 20.8 57.5035 20.8C57.9435 20.8 58.1635 21.04 58.1635 21.52C58.1635 21.68 58.0035 21.98 57.6835 22.42C57.3635 22.84 56.9335 23.34 56.3935 23.92C55.8535 24.5 55.2235 25.1 54.5035 25.72C53.8035 26.32 53.0635 26.89 52.2835 27.43C51.5235 27.95 50.7535 28.37 49.9735 28.69C49.2135 29.03 48.4935 29.2 47.8135 29.2ZM61.7002 29.2C60.1602 29.2 58.9502 28.7 58.0702 27.7C57.2102 26.68 56.7802 25.26 56.7802 23.44C56.7802 22.32 56.9302 21.01 57.2302 19.51C57.5502 17.99 57.9502 16.39 58.4302 14.71C58.9302 13.01 59.4702 11.33 60.0502 9.67C60.6302 8.01 61.1902 6.47 61.7302 5.05C62.2902 3.61 62.7802 2.41 63.2002 1.45C63.4402 0.909998 63.7802 0.639998 64.2202 0.639998C64.8202 0.639998 65.1202 1.01 65.1202 1.75C65.1202 1.99 65.0102 2.48 64.7902 3.22C64.5702 3.96 64.2802 4.88 63.9202 5.98C63.5602 7.06 63.1702 8.26 62.7502 9.58C62.3302 10.9 61.9002 12.26 61.4602 13.66C61.0402 15.04 60.6502 16.41 60.2902 17.77C59.9302 19.11 59.6402 20.37 59.4202 21.55C59.2002 22.73 59.0902 23.74 59.0902 24.58C59.0902 25.12 59.2302 25.55 59.5102 25.87C59.8102 26.17 60.2102 26.32 60.7102 26.32C61.6302 26.32 62.5502 26.14 63.4702 25.78C64.4102 25.4 65.3102 24.94 66.1702 24.4C67.0302 23.84 67.8102 23.29 68.5102 22.75C69.2302 22.19 69.8402 21.73 70.3402 21.37C70.8402 20.99 71.1902 20.8 71.3902 20.8C71.8302 20.8 72.0502 21.04 72.0502 21.52C72.0502 21.68 71.8902 21.98 71.5702 22.42C71.2502 22.84 70.8202 23.34 70.2802 23.92C69.7402 24.5 69.1102 25.1 68.3902 25.72C67.6902 26.32 66.9502 26.89 66.1702 27.43C65.4102 27.95 64.6402 28.37 63.8602 28.69C63.1002 29.03 62.3802 29.2 61.7002 29.2ZM74.3464 28.3C73.1664 28.3 72.2364 27.85 71.5564 26.95C70.8764 26.05 70.5364 24.88 70.5364 23.44C70.5364 22.92 70.6064 22.37 70.7464 21.79C70.9064 21.19 71.1064 20.65 71.3464 20.17C71.2064 20.03 71.0964 19.84 71.0164 19.6C70.9364 19.34 70.8964 19.02 70.8964 18.64C70.8964 17.46 71.0964 16.38 71.4964 15.4C71.8964 14.42 72.4264 13.57 73.0864 12.85C73.7464 12.11 74.4764 11.54 75.2764 11.14C76.0964 10.74 76.9264 10.54 77.7664 10.54C79.1464 10.54 80.2664 11.04 81.1264 12.04C81.9864 13.02 82.4164 14.52 82.4164 16.54C82.4164 17.6 82.2564 18.68 81.9364 19.78C81.6364 20.88 81.2164 21.94 80.6764 22.96C80.1564 23.98 79.5464 24.89 78.8464 25.69C78.1664 26.49 77.4364 27.13 76.6564 27.61C75.8964 28.07 75.1264 28.3 74.3464 28.3ZM73.3264 19.15C73.4464 19.31 73.5064 19.52 73.5064 19.78C73.5064 20.08 73.4464 20.38 73.3264 20.68C73.2264 20.98 73.1164 21.39 72.9964 21.91C72.8764 22.43 72.8164 23.17 72.8164 24.13C72.8164 25.09 73.1964 25.57 73.9564 25.57C74.7964 25.57 75.5764 25.24 76.2964 24.58C77.0164 23.9 77.6564 23.03 78.2164 21.97C78.7764 20.91 79.2064 19.78 79.5064 18.58C79.8264 17.36 79.9864 16.21 79.9864 15.13C79.9864 14.43 79.8564 13.94 79.5964 13.66C79.3364 13.36 78.8664 13.21 78.1864 13.21C77.4864 13.21 76.7564 13.45 75.9964 13.93C75.2564 14.39 74.6364 15.02 74.1364 15.82C73.6364 16.62 73.3864 17.52 73.3864 18.52C73.3864 18.74 73.3664 18.95 73.3264 19.15Z" fill="#0B0606"/>
<path d="M98.2166 18.4C97.6766 18.36 97.4266 18.01 97.4666 17.35C97.4866 17.19 97.5966 17 97.7966 16.78C97.9966 16.54 98.2266 16.41 98.4866 16.39C99.1066 16.33 99.8666 16.24 100.767 16.12C101.687 15.98 102.697 15.82 103.797 15.64C103.997 14.66 104.237 13.63 104.517 12.55C104.797 11.47 105.107 10.42 105.447 9.4C105.787 8.36 106.147 7.42 106.527 6.58C106.907 5.74 107.307 5.08 107.727 4.6C107.947 4.38 108.147 4.23 108.327 4.15C108.507 4.05 108.667 4 108.807 4C109.087 4 109.307 4.12 109.467 4.36C109.647 4.6 109.737 4.87 109.737 5.17C109.737 5.33 109.707 5.49 109.647 5.65C109.247 6.77 108.817 8.15 108.357 9.79C107.897 11.43 107.407 13.22 106.887 15.16C108.727 14.86 110.567 14.54 112.407 14.2C114.247 13.86 115.827 13.55 117.147 13.27C117.527 13.11 117.817 13.14 118.017 13.36C118.237 13.58 118.347 13.8 118.347 14.02C118.347 14.3 118.267 14.51 118.107 14.65C117.967 14.79 117.817 14.91 117.657 15.01L117.627 15.04C117.227 15.2 116.627 15.39 115.827 15.61C115.027 15.81 114.107 16.03 113.067 16.27C112.027 16.49 110.917 16.71 109.737 16.93C108.577 17.15 107.427 17.35 106.287 17.53C105.827 19.29 105.357 21.1 104.877 22.96C104.417 24.8 103.957 26.61 103.497 28.39C103.297 29.11 103.067 29.56 102.807 29.74C102.567 29.94 102.307 30.04 102.027 30.04C101.707 30.04 101.427 29.92 101.187 29.68C100.967 29.44 100.937 28.95 101.097 28.21L103.287 17.98C102.087 18.16 101.027 18.29 100.107 18.37C99.2066 18.45 98.5766 18.46 98.2166 18.4ZM123.617 30.72C123.277 30.72 122.987 30.57 122.747 30.27C122.507 29.97 122.387 29.53 122.387 28.95C122.387 28.27 122.487 27.3 122.687 26.04C122.907 24.78 123.227 23.11 123.647 21.03C123.107 22.31 122.507 23.52 121.847 24.66C121.207 25.8 120.527 26.73 119.807 27.45C119.087 28.17 118.347 28.53 117.587 28.53C116.847 28.53 116.187 28.24 115.607 27.66C115.047 27.08 114.767 26.06 114.767 24.6C114.767 23.78 114.837 22.86 114.977 21.84C115.117 20.8 115.297 19.77 115.517 18.75C115.737 17.73 115.957 16.82 116.177 16.02C116.397 15.2 116.597 14.6 116.777 14.22C116.917 13.9 117.057 13.69 117.197 13.59C117.337 13.47 117.527 13.41 117.767 13.41C118.047 13.41 118.347 13.53 118.667 13.77C118.987 14.01 119.147 14.41 119.147 14.97C119.147 15.11 119.077 15.44 118.937 15.96C118.817 16.46 118.657 17.08 118.457 17.82C118.277 18.54 118.087 19.32 117.887 20.16C117.687 21 117.517 21.84 117.377 22.68C117.257 23.52 117.197 24.29 117.197 24.99C117.197 25.37 117.237 25.68 117.317 25.92C117.397 26.16 117.597 26.28 117.917 26.28C118.197 26.28 118.547 26 118.967 25.44C119.407 24.88 119.877 24.14 120.377 23.22C120.897 22.28 121.427 21.24 121.967 20.1C122.527 18.96 123.067 17.79 123.587 16.59C124.127 15.39 124.617 14.25 125.057 13.17C125.217 12.81 125.387 12.59 125.567 12.51C125.747 12.41 125.947 12.36 126.167 12.36C126.527 12.36 126.847 12.51 127.127 12.81C127.427 13.09 127.577 13.46 127.577 13.92C127.577 14.22 127.517 14.74 127.397 15.48C127.297 16.22 127.147 17.09 126.947 18.09C126.767 19.07 126.557 20.11 126.317 21.21C126.097 22.31 125.877 23.4 125.657 24.48C125.437 25.54 125.227 26.51 125.027 27.39C124.847 28.27 124.697 28.98 124.577 29.52C124.477 30.02 124.337 30.34 124.157 30.48C123.997 30.64 123.817 30.72 123.617 30.72ZM132.587 28.57C132.267 28.57 131.997 28.44 131.777 28.18C131.557 27.92 131.447 27.56 131.447 27.1C131.447 26.76 131.517 26.2 131.657 25.42C131.817 24.62 131.987 23.69 132.167 22.63C132.367 21.57 132.537 20.47 132.677 19.33C132.817 18.17 132.887 17.06 132.887 16C132.887 15.48 133.017 15.1 133.277 14.86C133.557 14.6 133.867 14.47 134.207 14.47C134.527 14.47 134.767 14.67 134.927 15.07C135.087 15.47 135.117 16.27 135.017 17.47C135.937 15.43 136.947 13.79 138.047 12.55C139.167 11.29 140.277 10.39 141.377 9.85C142.477 9.29 143.467 9.01 144.347 9.01C144.927 9.01 145.347 9.13 145.607 9.37C145.887 9.59 146.027 9.84 146.027 10.12C146.027 10.5 145.867 10.8 145.547 11.02C145.247 11.22 144.717 11.46 143.957 11.74C143.077 12.08 142.267 12.48 141.527 12.94C140.807 13.38 140.117 13.96 139.457 14.68C138.817 15.4 138.187 16.32 137.567 17.44C136.947 18.54 136.327 19.9 135.707 21.52C135.087 23.14 134.427 25.09 133.727 27.37C133.607 27.81 133.447 28.12 133.247 28.3C133.067 28.48 132.847 28.57 132.587 28.57ZM147.786 27.31C147.206 27.31 146.686 26.98 146.226 26.32C145.766 25.66 145.536 24.81 145.536 23.77C145.536 22.63 145.686 21.41 145.986 20.11C146.306 18.81 146.696 17.49 147.156 16.15C147.616 14.79 148.066 13.48 148.506 12.22C148.606 11.96 148.746 11.77 148.926 11.65C149.126 11.51 149.426 11.44 149.826 11.44C150.546 11.44 150.906 11.79 150.906 12.49C150.906 12.65 150.826 13.01 150.666 13.57C150.506 14.13 150.296 14.82 150.036 15.64C149.796 16.46 149.546 17.35 149.286 18.31C149.026 19.25 148.796 20.2 148.596 21.16C148.396 22.12 148.256 23.01 148.176 23.83C148.496 23.49 148.856 22.97 149.256 22.27C149.676 21.57 150.126 20.78 150.606 19.9C151.086 19 151.586 18.1 152.106 17.2C152.626 16.28 153.146 15.44 153.666 14.68C154.206 13.9 154.726 13.28 155.226 12.82C155.746 12.34 156.226 12.1 156.666 12.1C157.306 12.1 157.846 12.3 158.286 12.7C158.746 13.08 159.096 13.76 159.336 14.74C159.596 15.7 159.726 17.06 159.726 18.82C159.726 19.76 159.816 20.64 159.996 21.46C160.196 22.28 160.506 22.94 160.926 23.44C161.366 23.92 161.926 24.16 162.606 24.16C163.626 24.16 164.536 23.98 165.336 23.62C166.136 23.24 166.826 22.82 167.406 22.36C168.006 21.88 168.506 21.46 168.906 21.1C169.306 20.72 169.616 20.53 169.836 20.53C170.296 20.53 170.526 20.77 170.526 21.25C170.526 21.45 170.376 21.77 170.076 22.21C169.796 22.63 169.396 23.11 168.876 23.65C168.376 24.17 167.796 24.68 167.136 25.18C166.496 25.66 165.806 26.06 165.066 26.38C164.346 26.7 163.616 26.86 162.876 26.86C161.496 26.86 160.366 26.59 159.486 26.05C158.626 25.51 157.986 24.62 157.566 23.38C157.166 22.14 156.966 20.48 156.966 18.4C156.966 17.26 156.896 16.43 156.756 15.91C156.636 15.37 156.406 15.01 156.066 14.83C155.826 15.25 155.516 15.85 155.136 16.63C154.756 17.39 154.316 18.24 153.816 19.18C153.336 20.12 152.826 21.07 152.286 22.03C151.766 22.97 151.236 23.84 150.696 24.64C150.156 25.44 149.636 26.09 149.136 26.59C148.636 27.07 148.186 27.31 147.786 27.31ZM172.315 28.3C171.135 28.3 170.205 27.85 169.525 26.95C168.845 26.05 168.505 24.88 168.505 23.44C168.505 22.92 168.575 22.37 168.715 21.79C168.875 21.19 169.075 20.65 169.315 20.17C169.175 20.03 169.065 19.84 168.985 19.6C168.905 19.34 168.865 19.02 168.865 18.64C168.865 17.46 169.065 16.38 169.465 15.4C169.865 14.42 170.395 13.57 171.055 12.85C171.715 12.11 172.445 11.54 173.245 11.14C174.065 10.74 174.895 10.54 175.735 10.54C177.115 10.54 178.235 11.04 179.095 12.04C179.955 13.02 180.385 14.52 180.385 16.54C180.385 17.6 180.225 18.68 179.905 19.78C179.605 20.88 179.185 21.94 178.645 22.96C178.125 23.98 177.515 24.89 176.815 25.69C176.135 26.49 175.405 27.13 174.625 27.61C173.865 28.07 173.095 28.3 172.315 28.3ZM171.295 19.15C171.415 19.31 171.475 19.52 171.475 19.78C171.475 20.08 171.415 20.38 171.295 20.68C171.195 20.98 171.085 21.39 170.965 21.91C170.845 22.43 170.785 23.17 170.785 24.13C170.785 25.09 171.165 25.57 171.925 25.57C172.765 25.57 173.545 25.24 174.265 24.58C174.985 23.9 175.625 23.03 176.185 21.97C176.745 20.91 177.175 19.78 177.475 18.58C177.795 17.36 177.955 16.21 177.955 15.13C177.955 14.43 177.825 13.94 177.565 13.66C177.305 13.36 176.835 13.21 176.155 13.21C175.455 13.21 174.725 13.45 173.965 13.93C173.225 14.39 172.605 15.02 172.105 15.82C171.605 16.62 171.355 17.52 171.355 18.52C171.355 18.74 171.335 18.95 171.295 19.15Z" fill="#FD1515"/>
</svg>
